<svg width="75" height="380" xmlns="http://www.w3.org/2000/svg" xmlns:xlink="http://www.w3.org/1999/xlink" overflow="hidden"><defs><clipPath id="clip0"><rect x="574" y="139" width="75" height="380"/></clipPath></defs><g clip-path="url(#clip0)" transform="translate(-574 -139)"><path d="M860.999 396.991 418 396.991C439.195 374.704 470.576 355.952 508.754 342.757 528.843 335.893 549.485 330.77 570.454 327.446 593.287 323.799 616.376 321.98 639.499 322.008 662.621 321.98 685.71 323.799 708.544 327.446 729.512 330.77 750.154 335.893 770.243 342.757 808.424 355.955 839.805 374.704 860.999 396.991L860.999 396.991Z" fill="#FFFFFF" transform="matrix(6.1233e-17 1.00001 -1 6.12323e-17 971 -310.24)"/><path d="M839.338 396.991 822.877 396.991C819.199 394.771 815.342 392.592 811.413 390.508L827.827 389.071C831.826 391.631 835.699 394.295 839.336 396.989L839.336 396.989 839.336 396.989ZM456.124 396.991 439.664 396.991C443.248 394.337 447.04 391.724 450.934 389.225L467.306 390.658C463.474 392.694 459.712 394.825 456.124 396.991ZM494.763 378.005 494.763 378.005 474.04 376.192C475.647 375.393 477.253 374.62 478.814 373.884 484.275 371.31 490.005 368.835 495.847 366.528L513.449 371.245C507.079 373.333 500.793 375.607 494.762 378.007ZM783.875 377.862 783.875 377.862C778.129 375.583 772.131 373.412 766.049 371.408L783.6 366.709C789.284 368.964 794.863 371.38 800.184 373.888 801.699 374.602 803.204 375.329 804.659 376.047ZM737.915 363.42 737.915 363.42C727.29 360.858 716.268 358.691 705.15 356.981L717.886 348.064C729.828 350.281 741.555 353.031 752.738 356.235 754.638 356.778 756.557 357.346 758.442 357.921L737.915 363.419ZM541.669 363.279 541.669 363.279 521.074 357.762C522.835 357.229 524.573 356.716 526.26 356.235 536.103 353.416 546.391 350.941 556.839 348.882L569.414 357.688C560.03 359.236 550.695 361.117 541.666 363.279ZM591.259 354.672 591.259 354.672 577.891 345.313C578.855 345.176 579.665 345.063 580.368 344.967 597.487 342.646 614.729 341.344 632.003 341.068L632.003 352.065C618.389 352.299 604.681 353.176 591.259 354.672ZM683.017 354.173C671.134 352.981 659.021 352.273 647 352.066L647 341.069C663.575 341.336 680.121 342.546 696.561 344.692L683.017 354.175 683.017 354.175Z" fill="#FFC000" transform="matrix(6.1233e-17 1.00001 -1 6.12323e-17 971 -310.24)"/></g></svg>