<svg width="112" height="106" xmlns="http://www.w3.org/2000/svg" xmlns:xlink="http://www.w3.org/1999/xlink" overflow="hidden"><defs><clipPath id="clip0"><rect x="579" y="312" width="112" height="106"/></clipPath></defs><g clip-path="url(#clip0)" transform="translate(-579 -312)"><path d="M93.9253 47.5571C93.9253 73.8221 72.8994 95.1142 46.9626 95.1142 21.0259 95.1142 0 73.8221 0 47.5571-8.44784e-15 21.292 21.0259-8.44784e-15 46.9626-1.68957e-14 72.8994-3.37913e-14 93.9253 21.292 93.9253 47.5571Z" fill="#FFFFFF" transform="matrix(1.0004 0 0 1 588.12 316.941)"/><path d="M33.3922 14.0151 23.6597 27.0552 20.7967 24.4467C18.5313 22.36 15.044 22.36 12.7786 24.4467 10.7621 26.1153 10.48 29.1026 12.1486 31.1191 12.3383 31.3484 12.5493 31.5594 12.7786 31.7491L20.7967 39.0515C21.8618 40.101 23.3113 40.6668 24.8058 40.6161L25.3788 40.6161C26.9744 40.6115 28.4687 39.8338 29.3879 38.5296L43.1283 19.7528C44.7511 17.6047 44.3251 14.5478 42.177 12.9251 41.9366 12.7435 41.68 12.5846 41.4103 12.4504 38.7442 10.7708 35.2313 11.4563 33.3922 14.0151Z" fill="#EF6C00" transform="matrix(1.0004 0 0 1 607.412 340.805)"/><path d="M107.129 40.5424C105.036 38.6382 103.826 35.9518 103.786 33.1223 103.786 21.4625 93.7564 11.9226 81.4986 11.9226 78.5853 11.9091 75.7902 10.7695 73.698 8.74218 64.8096 0.262057 50.8266 0.262057 41.9382 8.74218 40.1282 10.8418 37.466 12.0108 34.6953 11.9226 22.4374 11.9226 12.4076 21.4625 12.4076 33.1223 12.368 35.9518 11.1575 38.6382 9.06438 40.5424 0.722272 48.1187 0.101446 61.0231 7.67773 69.3652 8.11745 69.8494 8.58021 70.3121 9.06438 70.7519 11.1575 72.6561 12.368 75.3425 12.4076 78.172 12.4076 89.8318 22.4374 99.3717 34.6953 99.3717 37.6085 99.3852 40.4037 100.525 42.4958 102.552 46.8626 106.246 52.3781 108.305 58.0969 108.378 63.6682 108.378 69.7984 106.258 73.698 102.018 75.7902 99.991 78.5853 98.8513 81.4986 98.8379 93.7564 98.8379 103.786 89.298 103.786 77.6381 103.869 74.9249 104.849 72.3157 106.572 70.218L106.572 70.218C114.897 63.4524 116.16 51.2192 109.395 42.8945 108.707 42.0483 107.949 41.2615 107.129 40.5424ZM99.3289 62.798 99.3289 62.798C95.1421 66.6054 92.721 71.9783 92.6424 77.637 92.4713 83.6321 87.4948 88.366 81.4986 88.2374 75.6325 88.0534 69.9632 90.3644 65.8975 94.597 61.4402 98.8367 54.1961 98.8367 50.2964 94.597 46.1119 90.5428 40.5216 88.264 34.6953 88.2374 28.6991 88.366 23.7226 83.6321 23.5515 77.637 23.6877 71.9323 21.2284 66.474 16.8649 62.7968 12.7669 59.1721 12.3832 52.9116 16.0079 48.8136 16.2758 48.5107 16.562 48.2245 16.8649 47.9566 21.0521 44.1488 23.4732 38.7755 23.5515 33.1164 23.7226 27.1212 28.6991 22.3874 34.6953 22.5159 40.5596 22.6987 46.2267 20.3883 50.2916 16.1575 54.6279 11.9179 61.5565 11.9179 65.8927 16.1575 70.0782 20.2133 75.6705 22.4927 81.4986 22.5183 87.4948 22.3898 92.4713 27.1236 92.6424 33.1188 92.5061 38.8234 94.9655 44.2817 99.3289 47.959 103.427 51.584 103.81 57.8445 100.185 61.9422 99.9172 62.2446 99.6314 62.5304 99.3289 62.798Z" fill="#EBE663" transform="matrix(1.0004 0 0 1 576.914 309.622)"/></g></svg>