<svg width="121" height="102" xmlns="http://www.w3.org/2000/svg" xmlns:xlink="http://www.w3.org/1999/xlink" overflow="hidden"><defs><clipPath id="clip0"><rect x="579" y="309" width="121" height="102"/></clipPath></defs><g clip-path="url(#clip0)" transform="translate(-579 -309)"><path d="M673.96 346.599 673.96 332.466C673.96 324.862 668.193 318.698 661.079 318.698L656.786 318.698 656.786 314.108C656.944 311.736 655.15 309.686 652.779 309.528 650.407 309.37 648.357 311.164 648.199 313.535 648.186 313.726 648.186 313.917 648.199 314.108L648.199 318.697 605.263 318.697 605.263 314.108C605.342 311.655 603.421 309.602 600.969 309.519 598.517 309.603 596.597 311.656 596.675 314.108L596.675 318.697 592.382 318.697C585.268 318.697 579.501 324.861 579.501 332.465L579.501 396.719C579.501 404.323 585.268 410.487 592.382 410.487L669.667 410.487C685.341 410.357 698.29 397.375 699.414 380.665 700.537 363.955 689.455 349.122 673.96 346.599ZM592.382 327.876 596.675 327.876 596.675 332.465C596.597 334.916 598.517 336.969 600.969 337.053 603.421 336.97 605.342 334.917 605.263 332.465L605.263 327.876 648.198 327.876 648.198 332.465C648.04 334.836 649.834 336.886 652.206 337.044 654.577 337.202 656.627 335.408 656.785 333.037 656.798 332.846 656.798 332.655 656.785 332.465L656.785 327.876 661.079 327.876C663.53 327.96 665.451 330.013 665.372 332.465L665.372 346.233 588.087 346.233 588.087 332.465C588.008 330.012 589.93 327.959 592.382 327.876ZM592.382 401.303C589.931 401.219 588.01 399.166 588.089 396.714L588.089 355.416 648.667 355.416C636.64 368.349 636.64 388.374 648.667 401.307ZM669.667 401.303C660.077 401.367 651.611 394.623 648.927 384.783 646.242 374.942 649.986 364.391 658.104 358.937 666.156 353.474 676.946 354.458 683.876 361.289L669.665 376.479 666.273 372.85C664.622 371.306 662.031 371.393 660.487 373.044 660.473 373.06 660.458 373.075 660.444 373.091 658.857 374.833 658.761 377.468 660.219 379.321L666.66 386.202C668.187 387.874 670.781 387.991 672.452 386.464 672.543 386.381 672.63 386.293 672.714 386.202L689.072 368.717C690.411 371.755 691.112 375.035 691.133 378.354 691.134 391.03 681.522 401.303 669.665 401.303Z" fill="#73C87B"/></g></svg>