<svg width="130" height="130" xmlns="http://www.w3.org/2000/svg" xmlns:xlink="http://www.w3.org/1999/xlink" overflow="hidden"><defs><clipPath id="clip0"><rect x="575" y="295" width="130" height="130"/></clipPath></defs><g clip-path="url(#clip0)" transform="translate(-575 -295)"><path d="M642.708 343.75C651.324 384.971 631.875 414.168 631.875 414.168L648.125 414.168C658.308 382.751 653.542 360.488 650.83 349.167M662.534 333.784C663.478 334.904 664.33 336.1 665.079 337.359 674.138 351.684 672.752 370.25 661.667 383.072 666.414 371.562 665.304 358.468 658.688 347.921 658.254 347.22 657.767 346.619 657.334 345.97 654.219 341.623 650.235 337.971 645.634 335.246 629.629 340.354 618.766 355.225 618.766 372.025 618.761 375.897 619.327 379.748 620.445 383.455 608.18 366.318 611.943 342.51 628.896 329.992 620.679 329.347 612.469 331.319 605.442 335.625 602.182 337.759 599.23 340.329 596.667 343.263 599.726 335.806 605.026 329.483 611.833 325.168 619.635 320.264 628.938 318.323 638.05 319.697 635.724 316.519 632.972 313.675 629.87 311.247 626.761 308.982 623.353 307.16 619.742 305.833 627.79 306.025 635.576 308.734 642.004 313.579 645.255 316.044 648.059 319.049 650.292 322.463 650.834 322.463 651.321 322.409 651.863 322.409 668.788 322.411 683.74 333.433 688.75 349.6 682.589 340.913 673.091 335.183 662.534 333.784Z" fill="#65B9A5"/></g></svg>