<svg width="124" height="102" xmlns="http://www.w3.org/2000/svg" xmlns:xlink="http://www.w3.org/1999/xlink" overflow="hidden"><defs><clipPath id="clip0"><rect x="578" y="309" width="124" height="102"/></clipPath></defs><g clip-path="url(#clip0)" transform="translate(-578 -309)"><path d="M661.435 382.624C665.073 382.624 668.022 385.574 668.022 389.212L668.022 389.213C668.022 392.851 665.073 395.8 661.435 395.8L584.71 395.8C581.072 395.8 578.123 392.851 578.123 389.213L578.123 389.212C578.123 385.574 581.072 382.624 584.71 382.624Z" fill="#DF5B5B"/><path d="M688.292 363.173C691.485 361.019 695.82 361.862 697.973 365.056L697.973 365.056C700.126 368.249 699.283 372.583 696.09 374.737L665.894 395.098C662.7 397.251 658.366 396.408 656.213 393.215L656.213 393.215C654.059 390.022 654.903 385.687 658.096 383.534Z" fill="#DF5B5B"/><path d="M651.562 391.973C652.688 390.848 654.513 390.848 655.638 391.973L668.55 404.885C669.676 406.011 669.676 407.836 668.55 408.961L668.55 408.961C667.425 410.087 665.6 410.087 664.474 408.961L651.562 396.049C650.437 394.923 650.437 393.099 651.562 391.973Z" fill="#DF5B5B"/><path d="M597.149 391.973C598.275 393.098 598.275 394.923 597.149 396.049L584.237 408.961C583.111 410.086 581.287 410.086 580.161 408.961L580.161 408.961C579.036 407.835 579.036 406.011 580.161 404.885L593.073 391.973C594.199 390.848 596.024 390.848 597.149 391.973Z" fill="#DF5B5B"/><path d="M629.273 339.999 633.147 339.999 633.147 392.699 629.273 392.699Z" fill="#DF5B5B"/><path d="M659.325 346.201 659.325 346.201C658.418 347.585 656.336 348.526 653.998 348.526 651.66 348.526 649.579 347.586 648.669 346.201L647.157 346.201C646.249 347.585 644.167 348.527 641.827 348.527 639.487 348.527 637.407 347.585 636.499 346.201L635.766 346.201C634.858 347.585 632.777 348.527 630.438 348.527 628.099 348.527 626.018 347.585 625.109 346.201L624.563 346.201C623.653 347.585 621.573 348.526 619.236 348.526 616.898 348.526 614.817 347.584 613.909 346.201L613.173 346.201C612.263 347.585 610.183 348.526 607.845 348.526 605.507 348.526 603.426 347.584 602.519 346.201L602.322 346.201C601.413 347.585 599.333 348.526 596.993 348.526 594.653 348.526 592.574 347.586 591.665 346.201L590.523 346.201 591.311 345.473 591.297 345.426 591.363 345.426 630.824 309 670.287 345.428 670.346 345.428C670.34 345.444 670.336 345.458 670.33 345.473L671.118 346.201 669.983 346.201C669.074 347.585 666.994 348.527 664.654 348.527 662.314 348.527 660.233 347.585 659.325 346.201Z" fill="#DF5B5B"/></g></svg>