<svg width="33" height="33" xmlns="http://www.w3.org/2000/svg" xmlns:xlink="http://www.w3.org/1999/xlink" overflow="hidden"><defs><clipPath id="clip0"><rect x="623" y="343" width="33" height="33"/></clipPath></defs><g clip-path="url(#clip0)" transform="translate(-623 -343)"><path d="M651.877 343.013 627.125 343.013C624.849 343.015 623.003 344.859 623 347.135L623 371.865C623.003 374.141 624.849 375.985 627.125 375.987L651.877 375.987C654.153 375.985 655.999 374.141 656.002 371.865L656.002 347.135C655.999 344.859 654.153 343.015 651.877 343.013Z" fill="#1976D2"/><path d="M650.32 359.177 644.781 359.177 644.781 354.974C644.781 353.814 645.773 353.924 646.996 353.924L649.212 353.924 649.212 348.671 644.781 348.671C641.206 348.58 638.233 351.4 638.134 354.974L638.134 359.177 633.703 359.177 633.703 364.43 638.134 364.43 638.134 375.987 644.781 375.987 644.781 364.43 648.104 364.43Z" fill="#FAFAFA" fill-rule="evenodd"/></g></svg>