<svg width="29" height="29" xmlns="http://www.w3.org/2000/svg" xmlns:xlink="http://www.w3.org/1999/xlink" overflow="hidden"><defs><clipPath id="clip0"><rect x="625" y="345" width="29" height="29"/></clipPath><linearGradient x1="623.274" y1="375.725" x2="657.175" y2="341.824" gradientUnits="userSpaceOnUse" spreadMethod="pad" id="fill1"><stop offset="0" stop-color="#FED576"/><stop offset="0.26" stop-color="#F47133"/><stop offset="0.61" stop-color="#BC3081"/><stop offset="1" stop-color="#4C63D2"/></linearGradient></defs><g clip-path="url(#clip0)" transform="translate(-625 -345)"><path d="M647.491 345C651.086 345 654 347.914 654 351.509L654 367.491C654 371.086 651.086 374 647.491 374L631.509 374C627.914 374 625 371.086 625 367.491L625 351.509C625 347.914 627.914 345 631.509 345Z" fill="url(#fill1)"/><path d="M635.045 350.023 644.086 350.023C644.286 350.123 644.588 350.123 644.789 350.223 646.587 350.515 648.065 351.799 648.606 353.538 648.754 354.03 648.855 354.534 648.907 355.045L648.907 363.885C648.764 365.005 648.35 366.074 647.702 366.999 646.575 368.304 644.903 369.01 643.182 368.907L635.648 368.907C634.303 368.972 632.981 368.544 631.931 367.702 630.637 366.584 629.932 364.93 630.023 363.222L630.023 356.19C630.006 355.686 630.04 355.181 630.123 354.683 630.331 352.571 631.87 350.83 633.94 350.364ZM631.931 359.565 631.931 363.483C631.769 365.373 633.17 367.037 635.06 367.2 635.256 367.216 635.452 367.216 635.648 367.2 638.259 367.3 640.871 367.3 643.483 367.2 645.793 367.2 647.099 365.793 647.2 363.483 647.3 360.871 647.3 358.259 647.2 355.648 647.302 353.698 645.804 352.034 643.854 351.931 643.731 351.925 643.607 351.925 643.483 351.931 640.871 351.831 638.259 351.831 635.648 351.931 633.757 351.769 632.093 353.17 631.931 355.06 631.914 355.256 631.914 355.452 631.931 355.648Z" fill="#FFFFFF"/><path d="M634.683 359.605C634.689 356.889 636.889 354.689 639.605 354.683 642.301 354.737 644.474 356.91 644.528 359.605 644.522 362.322 642.322 364.522 639.605 364.528 636.91 364.474 634.737 362.301 634.683 359.605ZM639.605 356.492C637.914 356.464 636.52 357.813 636.492 359.505 636.465 361.197 637.814 362.591 639.506 362.618 641.198 362.646 642.591 361.296 642.619 359.605 642.62 359.571 642.62 359.538 642.619 359.505 642.619 357.841 641.27 356.492 639.605 356.492Z" fill="#FFFFFF"/><path d="M643.423 354.483C643.4 353.839 643.903 353.3 644.546 353.277 644.573 353.276 644.601 353.276 644.628 353.277 645.275 353.321 645.79 353.836 645.833 354.483 645.833 355.148 645.294 355.688 644.628 355.688 643.962 355.688 643.423 355.148 643.423 354.483Z" fill="#FFFFFF"/></g></svg>