<svg width="30" height="33" xmlns="http://www.w3.org/2000/svg" xmlns:xlink="http://www.w3.org/1999/xlink" overflow="hidden"><defs><clipPath id="clip0"><rect x="625" y="343" width="30" height="33"/></clipPath></defs><g clip-path="url(#clip0)" transform="translate(-625 -343)"><path d="M640.836 364.641C642.129 359.561 648.089 359.974 648.089 364.39L648.089 374.317C648.065 375.222 648.779 375.975 649.683 375.999 649.685 375.999 649.686 375.999 649.688 375.999L653.052 375.999C653.956 375.977 654.672 375.226 654.65 374.321 654.65 374.32 654.65 374.318 654.65 374.317L654.65 360.711C654.65 352.673 640.698 351.706 640.763 358.081ZM626.951 352.223C626.047 352.245 625.331 352.996 625.353 353.901 625.353 353.902 625.353 353.904 625.353 353.905L625.353 374.317C625.328 375.221 626.042 375.975 626.946 376 626.948 376 626.95 376 626.951 376L630.316 376C631.22 375.978 631.936 375.227 631.914 374.322 631.914 374.321 631.914 374.319 631.914 374.318L631.914 353.906C631.938 353.001 631.224 352.248 630.32 352.224 630.318 352.224 630.317 352.224 630.316 352.224Z" fill="#00A1FF"/><path d="M636.677 352.686C635.784 352.702 635.073 353.438 635.089 354.331 635.089 354.332 635.089 354.334 635.089 354.335L635.089 374.351C635.071 375.243 635.78 375.982 636.672 376 636.674 376 636.675 376 636.677 376L640.022 376C640.915 375.984 641.626 375.248 641.61 374.355 641.61 374.354 641.61 374.352 641.61 374.351L641.61 354.335C641.629 353.443 640.92 352.704 640.027 352.686 640.025 352.686 640.024 352.686 640.022 352.686ZM628.684 349.915C626.808 349.879 625.316 348.329 625.352 346.453 625.352 346.452 625.352 346.452 625.352 346.452 625.316 344.576 626.807 343.026 628.684 342.989 628.684 342.989 628.684 342.989 628.684 342.989 630.56 343.025 632.052 344.576 632.015 346.452 632.015 346.452 632.015 346.452 632.015 346.452 632.052 348.328 630.56 349.879 628.684 349.915 628.684 349.915 628.684 349.915 628.684 349.915Z" fill="#00A1FF"/></g></svg>