<svg width="30" height="31" xmlns="http://www.w3.org/2000/svg" xmlns:xlink="http://www.w3.org/1999/xlink" overflow="hidden"><defs><clipPath id="clip0"><rect x="625" y="344" width="30" height="31"/></clipPath></defs><g clip-path="url(#clip0)" transform="translate(-625 -344)"><path d="M653.552 344.197C654.352 344.197 655 344.845 655 345.645L655 373.355C655 374.155 654.352 374.803 653.552 374.803L626.448 374.803C625.648 374.803 625 374.155 625 373.355L625 345.645C625 344.845 625.648 344.197 626.448 344.197Z" fill="#D42028"/><path d="M633.242 347.003C629.828 348.262 627.339 351.239 626.705 354.823 626.249 357.119 626.501 359.5 627.427 361.651 627.643 362.122 627.907 362.57 628.215 362.988 628.365 363.192 628.527 363.386 628.701 363.571 629.011 363.457 629.311 363.316 629.596 363.151 630.701 362.381 631.728 361.505 632.663 360.535 629.277 356.53 632.867 351.557 637.353 350.453 641.53 349.424 647.19 351.2 648.457 355.593 649.058 357.411 648.564 359.412 647.187 360.742 646.415 361.432 645.465 361.893 644.446 362.073 643.849 362.178 643.241 362.2 642.638 362.137 642.303 362.102 641.971 362.045 641.644 361.966 641.088 361.833 640.593 361.853 640.593 361.24L640.593 354.034C640.593 353.543 640.64 353.636 640.242 353.585 639.928 353.545 639.614 353.515 639.299 353.486 638.18 353.359 637.049 353.374 635.933 353.53 635.523 353.602 635.496 353.53 635.496 353.99L635.496 357.79C635.496 360.475 635.695 363.186 635.585 365.864 635.553 366.66 635.532 368.578 634.658 368.973 633.646 369.431 632.75 368.462 631.816 368.26 631.945 369.605 631.12 372.269 632.655 372.947 634.06 373.624 635.67 373.746 637.161 373.288 640.266 372.21 641.27 368.678 640.876 365.776 645.667 367.181 650.767 364.885 652.891 360.367 654.302 357.122 653.779 353.361 651.538 350.624 647.421 345.609 639.067 344.646 633.242 347.003Z" fill="#FFFFFF" fill-rule="evenodd"/></g></svg>