<svg width="31" height="31" xmlns="http://www.w3.org/2000/svg" xmlns:xlink="http://www.w3.org/1999/xlink" overflow="hidden"><defs><clipPath id="clip0"><rect x="624" y="344" width="31" height="31"/></clipPath></defs><g clip-path="url(#clip0)" transform="translate(-624 -344)"><path d="M655 359.5C655 368.06 648.06 375 639.5 375 630.94 375 624 368.06 624 359.5 624 350.94 630.94 344 639.5 344 648.06 344 655 350.94 655 359.5Z" fill="#2DAAE1"/><path d="M646.743 353.95C646.213 354.243 645.635 354.439 645.036 354.528 645.69 354.019 646.151 353.303 646.343 352.497 645.779 352.916 645.138 353.219 644.456 353.388 643.957 352.681 643.153 352.251 642.287 352.229 640.647 352.229 639.316 353.872 639.316 355.899 639.316 356.18 639.342 356.46 639.393 356.736 636.86 356.5 634.588 355.08 633.267 352.907 633 353.485 632.863 354.115 632.867 354.752 632.837 355.915 633.32 357.033 634.189 357.807 633.706 357.785 633.239 357.626 632.843 357.348L632.843 357.394C632.738 358.993 633.713 360.466 635.226 360.994 634.974 361.08 634.709 361.123 634.443 361.123 634.255 361.123 634.067 361.101 633.884 361.058 634.137 362.431 635.269 363.471 636.659 363.607 635.683 364.595 634.358 365.16 632.969 365.179 632.732 365.179 632.495 365.162 632.26 365.127 633.546 366.179 635.153 366.762 636.815 366.777 642.28 366.777 645.269 361.184 645.269 356.334 645.269 356.175 645.266 356.016 645.26 355.859 645.861 355.313 646.363 354.667 646.743 353.95Z" fill="#FFFFFF"/></g></svg>